<?xml version="1.0" encoding="UTF-8"?>
<!--Generator: Apple Native CoreSVG 175-->
<!DOCTYPE svg
PUBLIC "-//W3C//DTD SVG 1.1//EN"
       "http://www.w3.org/Graphics/SVG/1.1/DTD/svg11.dtd">
<svg version="1.1" xmlns="http://www.w3.org/2000/svg" xmlns:xlink="http://www.w3.org/1999/xlink" width="3300" height="2200">
 <!--glyph: "uni1000B7.medium", point size: 100.0, font version: "17.3d3e1", template writer version: "65.1"-->
 <g id="Notes">
  <rect height="2200" id="artboard" style="fill:white;opacity:1" width="3300" x="0" y="0"/>
  <line style="fill:none;stroke:black;opacity:1;stroke-width:0.5;" x1="263" x2="3036" y1="292" y2="292"/>
  <text style="stroke:none;fill:black;font-family:sans-serif;font-size:13;font-weight:bold;" transform="matrix(1 0 0 1 263 322)">Weight/Scale Variations</text>
  <text style="stroke:none;fill:black;font-family:sans-serif;font-size:13;text-anchor:middle;" transform="matrix(1 0 0 1 559.711 322)">Ultralight</text>
  <text style="stroke:none;fill:black;font-family:sans-serif;font-size:13;text-anchor:middle;" transform="matrix(1 0 0 1 856.422 322)">Thin</text>
  <text style="stroke:none;fill:black;font-family:sans-serif;font-size:13;text-anchor:middle;" transform="matrix(1 0 0 1 1153.13 322)">Light</text>
  <text style="stroke:none;fill:black;font-family:sans-serif;font-size:13;text-anchor:middle;" transform="matrix(1 0 0 1 1449.84 322)">Regular</text>
  <text style="stroke:none;fill:black;font-family:sans-serif;font-size:13;text-anchor:middle;" transform="matrix(1 0 0 1 1746.56 322)">Medium</text>
  <text style="stroke:none;fill:black;font-family:sans-serif;font-size:13;text-anchor:middle;" transform="matrix(1 0 0 1 2043.27 322)">Semibold</text>
  <text style="stroke:none;fill:black;font-family:sans-serif;font-size:13;text-anchor:middle;" transform="matrix(1 0 0 1 2339.98 322)">Bold</text>
  <text style="stroke:none;fill:black;font-family:sans-serif;font-size:13;text-anchor:middle;" transform="matrix(1 0 0 1 2636.69 322)">Heavy</text>
  <text style="stroke:none;fill:black;font-family:sans-serif;font-size:13;text-anchor:middle;" transform="matrix(1 0 0 1 2933.4 322)">Black</text>
  <line style="fill:none;stroke:black;opacity:1;stroke-width:0.5;" x1="263" x2="3036" y1="1903" y2="1903"/>
  <g transform="matrix(1 0 0 1 263 1933)">
   <path d="M9.24805 0.830078Q10.8691 0.830078 12.2949 0.214844Q13.7207-0.400391 14.8096-1.49414Q15.8984-2.58789 16.5186-4.01367Q17.1387-5.43945 17.1387-7.05078Q17.1387-8.66211 16.5186-10.0879Q15.8984-11.5137 14.8047-12.6074Q13.7109-13.7012 12.2852-14.3164Q10.8594-14.9316 9.23828-14.9316Q7.62695-14.9316 6.20117-14.3164Q4.77539-13.7012 3.69141-12.6074Q2.60742-11.5137 1.9873-10.0879Q1.36719-8.66211 1.36719-7.05078Q1.36719-5.43945 1.9873-4.01367Q2.60742-2.58789 3.69629-1.49414Q4.78516-0.400391 6.21094 0.214844Q7.63672 0.830078 9.24805 0.830078ZM9.24805-0.654297Q7.91992-0.654297 6.7627-1.14746Q5.60547-1.64062 4.73145-2.51953Q3.85742-3.39844 3.36426-4.56055Q2.87109-5.72266 2.87109-7.05078Q2.87109-8.37891 3.35938-9.54102Q3.84766-10.7031 4.72168-11.582Q5.5957-12.4609 6.75293-12.9541Q7.91016-13.4473 9.23828-13.4473Q10.5762-13.4473 11.7334-12.9541Q12.8906-12.4609 13.7695-11.582Q14.6484-10.7031 15.1465-9.54102Q15.6445-8.37891 15.6445-7.05078Q15.6445-5.72266 15.1514-4.56055Q14.6582-3.39844 13.7842-2.51953Q12.9102-1.64062 11.748-1.14746Q10.5859-0.654297 9.24805-0.654297ZM5.6543-7.05078Q5.6543-6.72852 5.85938-6.52832Q6.06445-6.32812 6.40625-6.32812L8.51562-6.32812L8.51562-4.20898Q8.51562-3.88672 8.71094-3.67676Q8.90625-3.4668 9.23828-3.4668Q9.56055-3.4668 9.77051-3.67676Q9.98047-3.88672 9.98047-4.20898L9.98047-6.32812L12.0898-6.32812Q12.4219-6.32812 12.627-6.52832Q12.832-6.72852 12.832-7.05078Q12.832-7.38281 12.627-7.58789Q12.4219-7.79297 12.0898-7.79297L9.98047-7.79297L9.98047-9.90234Q9.98047-10.2344 9.77051-10.4443Q9.56055-10.6543 9.23828-10.6543Q8.90625-10.6543 8.71094-10.4443Q8.51562-10.2344 8.51562-9.90234L8.51562-7.79297L6.40625-7.79297Q6.06445-7.79297 5.85938-7.58789Q5.6543-7.38281 5.6543-7.05078Z"/>
  </g>
  <g transform="matrix(1 0 0 1 281.867 1933)">
   <path d="M11.709 2.91016Q13.75 2.91016 15.5518 2.12891Q17.3535 1.34766 18.7305-0.0292969Q20.1074-1.40625 20.8887-3.20801Q21.6699-5.00977 21.6699-7.05078Q21.6699-9.0918 20.8887-10.8936Q20.1074-12.6953 18.7305-14.0723Q17.3535-15.4492 15.5469-16.2305Q13.7402-17.0117 11.6992-17.0117Q9.6582-17.0117 7.85645-16.2305Q6.05469-15.4492 4.68262-14.0723Q3.31055-12.6953 2.5293-10.8936Q1.74805-9.0918 1.74805-7.05078Q1.74805-5.00977 2.5293-3.20801Q3.31055-1.40625 4.6875-0.0292969Q6.06445 1.34766 7.86621 2.12891Q9.66797 2.91016 11.709 2.91016ZM11.709 1.25Q9.98047 1.25 8.47656 0.605469Q6.97266-0.0390625 5.83496-1.17676Q4.69727-2.31445 4.05762-3.81836Q3.41797-5.32227 3.41797-7.05078Q3.41797-8.7793 4.05762-10.2832Q4.69727-11.7871 5.83008-12.9297Q6.96289-14.0723 8.4668-14.7119Q9.9707-15.3516 11.6992-15.3516Q13.4277-15.3516 14.9316-14.7119Q16.4355-14.0723 17.5781-12.9297Q18.7207-11.7871 19.3652-10.2832Q20.0098-8.7793 20.0098-7.05078Q20.0098-5.32227 19.3701-3.81836Q18.7305-2.31445 17.5928-1.17676Q16.4551-0.0390625 14.9463 0.605469Q13.4375 1.25 11.709 1.25ZM7.17773-7.05078Q7.17773-6.69922 7.41211-6.47461Q7.64648-6.25 8.01758-6.25L10.8887-6.25L10.8887-3.36914Q10.8887-2.99805 11.1133-2.76855Q11.3379-2.53906 11.6895-2.53906Q12.0605-2.53906 12.29-2.76855Q12.5195-2.99805 12.5195-3.36914L12.5195-6.25L15.4004-6.25Q15.7715-6.25 16.001-6.47461Q16.2305-6.69922 16.2305-7.05078Q16.2305-7.42188 16.001-7.65137Q15.7715-7.88086 15.4004-7.88086L12.5195-7.88086L12.5195-10.752Q12.5195-11.1328 12.29-11.3623Q12.0605-11.5918 11.6895-11.5918Q11.3379-11.5918 11.1133-11.3574Q10.8887-11.123 10.8887-10.752L10.8887-7.88086L8.01758-7.88086Q7.63672-7.88086 7.40723-7.65137Q7.17773-7.42188 7.17773-7.05078Z"/>
  </g>
  <g transform="matrix(1 0 0 1 305.646 1933)">
   <path d="M14.9707 5.66406Q17.0605 5.66406 18.96 5.01465Q20.8594 4.36523 22.4512 3.19336Q24.043 2.02148 25.2197 0.429688Q26.3965-1.16211 27.0459-3.06641Q27.6953-4.9707 27.6953-7.05078Q27.6953-9.14062 27.0459-11.04Q26.3965-12.9395 25.2197-14.5312Q24.043-16.123 22.4512-17.2998Q20.8594-18.4766 18.9551-19.126Q17.0508-19.7754 14.9609-19.7754Q12.8711-19.7754 10.9717-19.126Q9.07227-18.4766 7.48535-17.2998Q5.89844-16.123 4.72168-14.5312Q3.54492-12.9395 2.90039-11.04Q2.25586-9.14062 2.25586-7.05078Q2.25586-4.9707 2.90527-3.06641Q3.55469-1.16211 4.72656 0.429688Q5.89844 2.02148 7.49023 3.19336Q9.08203 4.36523 10.9814 5.01465Q12.8809 5.66406 14.9707 5.66406ZM14.9707 3.84766Q13.1641 3.84766 11.5283 3.2959Q9.89258 2.74414 8.53516 1.74805Q7.17773 0.751953 6.17676-0.610352Q5.17578-1.97266 4.62891-3.6084Q4.08203-5.24414 4.08203-7.05078Q4.08203-8.86719 4.62891-10.5029Q5.17578-12.1387 6.17188-13.501Q7.16797-14.8633 8.52539-15.8594Q9.88281-16.8555 11.5186-17.4023Q13.1543-17.9492 14.9609-17.9492Q16.7773-17.9492 18.4131-17.4023Q20.0488-16.8555 21.4111-15.8594Q22.7734-14.8633 23.7695-13.501Q24.7656-12.1387 25.3174-10.5029Q25.8691-8.86719 25.8691-7.05078Q25.8789-5.24414 25.332-3.6084Q24.7852-1.97266 23.7842-0.610352Q22.7832 0.751953 21.4209 1.74805Q20.0586 2.74414 18.4229 3.2959Q16.7871 3.84766 14.9707 3.84766ZM9.19922-7.05078Q9.19922-6.66992 9.45801-6.4209Q9.7168-6.17188 10.1172-6.17188L14.0625-6.17188L14.0625-2.2168Q14.0625-1.81641 14.3115-1.55762Q14.5605-1.29883 14.9512-1.29883Q15.3516-1.29883 15.6104-1.55273Q15.8691-1.80664 15.8691-2.2168L15.8691-6.17188L19.8242-6.17188Q20.2246-6.17188 20.4785-6.4209Q20.7324-6.66992 20.7324-7.05078Q20.7324-7.46094 20.4785-7.71484Q20.2246-7.96875 19.8242-7.96875L15.8691-7.96875L15.8691-11.9141Q15.8691-12.3242 15.6104-12.583Q15.3516-12.8418 14.9512-12.8418Q14.5605-12.8418 14.3115-12.583Q14.0625-12.3242 14.0625-11.9141L14.0625-7.96875L10.1172-7.96875Q9.70703-7.96875 9.45312-7.71484Q9.19922-7.46094 9.19922-7.05078Z"/>
  </g>
  <text style="stroke:none;fill:black;font-family:sans-serif;font-size:13;font-weight:bold;" transform="matrix(1 0 0 1 263 1953)">Design Variations</text>
  <text style="stroke:none;fill:black;font-family:sans-serif;font-size:13;" transform="matrix(1 0 0 1 263 1971)">Symbols are supported in up to nine weights and three scales.</text>
  <text style="stroke:none;fill:black;font-family:sans-serif;font-size:13;" transform="matrix(1 0 0 1 263 1989)">For optimal layout with text and other symbols, vertically align</text>
  <text style="stroke:none;fill:black;font-family:sans-serif;font-size:13;" transform="matrix(1 0 0 1 263 2007)">symbols with the adjacent text.</text>
  <line style="fill:none;stroke:#00AEEF;stroke-width:0.5;opacity:1.0;" x1="776" x2="776" y1="1919" y2="1933"/>
  <g transform="matrix(1 0 0 1 776 1933)">
   <path d="M3.31055 0.15625Q3.70117 0.15625 3.91602-0.00976562Q4.13086-0.175781 4.26758-0.585938L5.52734-4.0332L11.2891-4.0332L12.5488-0.585938Q12.6855-0.175781 12.9004-0.00976562Q13.1152 0.15625 13.4961 0.15625Q13.8867 0.15625 14.1162-0.0585938Q14.3457-0.273438 14.3457-0.644531Q14.3457-0.869141 14.2383-1.17188L9.6582-13.3691Q9.48242-13.8184 9.17969-14.043Q8.87695-14.2676 8.4082-14.2676Q7.5-14.2676 7.17773-13.3789L2.59766-1.16211Q2.49023-0.859375 2.49023-0.634766Q2.49023-0.263672 2.70996-0.0537109Q2.92969 0.15625 3.31055 0.15625ZM6.00586-5.51758L8.37891-12.0898L8.42773-12.0898L10.8008-5.51758Z"/>
  </g>
  <line style="fill:none;stroke:#00AEEF;stroke-width:0.5;opacity:1.0;" x1="793.197" x2="793.197" y1="1919" y2="1933"/>
  <text style="stroke:none;fill:black;font-family:sans-serif;font-size:13;font-weight:bold;" transform="matrix(1 0 0 1 776 1953)">Margins</text>
  <text style="stroke:none;fill:black;font-family:sans-serif;font-size:13;" transform="matrix(1 0 0 1 776 1971)">Leading and trailing margins on the left and right side of each symbol</text>
  <text style="stroke:none;fill:black;font-family:sans-serif;font-size:13;" transform="matrix(1 0 0 1 776 1989)">can be adjusted by modifying the x-location of the margin guidelines.</text>
  <text style="stroke:none;fill:black;font-family:sans-serif;font-size:13;" transform="matrix(1 0 0 1 776 2007)">Modifications are automatically applied proportionally to all</text>
  <text style="stroke:none;fill:black;font-family:sans-serif;font-size:13;" transform="matrix(1 0 0 1 776 2025)">scales and weights.</text>
  <g transform="matrix(1 0 0 1 1289 1933)">
   <path d="M2.8418 1.86523L4.54102 3.57422Q5.18555 4.22852 5.90332 4.17969Q6.62109 4.13086 7.31445 3.35938L18.0078-8.42773L17.041-9.4043L6.42578 2.27539Q6.16211 2.57812 5.89355 2.61719Q5.625 2.65625 5.27344 2.30469L4.10156 1.14258Q3.75 0.791016 3.79395 0.522461Q3.83789 0.253906 4.14062-0.0195312L15.6152-10.8203L14.6387-11.7871L3.04688-0.898438Q2.30469-0.214844 2.25098 0.498047Q2.19727 1.21094 2.8418 1.86523ZM9.25781-16.3281Q8.94531-16.0254 8.90625-15.6348Q8.86719-15.2441 9.04297-14.9512Q9.21875-14.6777 9.55566-14.541Q9.89258-14.4043 10.3809-14.5215Q11.4746-14.7754 12.5977-14.7314Q13.7207-14.6875 14.7949-13.9844L14.209-12.5293Q13.9551-11.9043 14.0674-11.4404Q14.1797-10.9766 14.5801-10.5664L16.875-8.25195Q17.2363-7.88086 17.5781-7.82227Q17.9199-7.76367 18.3398-7.8418L19.4043-8.03711L20.0684-7.36328L20.0293-6.80664Q20-6.43555 20.1221-6.12305Q20.2441-5.81055 20.6055-5.44922L21.3672-4.70703Q21.7285-4.3457 22.1533-4.33105Q22.5781-4.31641 22.9297-4.66797L25.8398-7.58789Q26.1914-7.93945 26.1816-8.35449Q26.1719-8.76953 25.8105-9.13086L25.0391-9.89258Q24.6875-10.2539 24.3799-10.3857Q24.0723-10.5176 23.7109-10.4883L23.1348-10.4395L22.4902-11.0742L22.7344-12.1973Q22.832-12.6172 22.6953-12.9834Q22.5586-13.3496 22.1191-13.7891L19.9219-15.9766Q18.6719-17.2168 17.2607-17.8369Q15.8496-18.457 14.4189-18.4814Q12.9883-18.5059 11.665-17.959Q10.3418-17.4121 9.25781-16.3281ZM10.752-15.957Q11.6602-16.6211 12.7002-16.9043Q13.7402-17.1875 14.8047-17.085Q15.8691-16.9824 16.8701-16.5137Q17.8711-16.0449 18.7012-15.2051L21.1328-12.793Q21.3086-12.6172 21.3525-12.4512Q21.3965-12.2852 21.3379-12.0312L21.0156-10.5469L22.5195-9.0625L23.5059-9.12109Q23.6914-9.13086 23.7891-9.09668Q23.8867-9.0625 24.0332-8.91602L24.6094-8.33984L22.168-5.89844L21.5918-6.47461Q21.4453-6.62109 21.4062-6.71875Q21.3672-6.81641 21.377-7.01172L21.4453-7.98828L19.9512-9.47266L18.4277-9.21875Q18.1836-9.16992 18.042-9.2041Q17.9004-9.23828 17.7148-9.41406L15.7129-11.416Q15.5176-11.5918 15.4932-11.7529Q15.4688-11.9141 15.5859-12.1875L16.4648-14.2773Q15.293-15.3711 13.8281-15.791Q12.3633-16.2109 10.8398-15.7617Q10.7227-15.7324 10.6885-15.8057Q10.6543-15.8789 10.752-15.957Z"/>
  </g>
  <text style="stroke:none;fill:black;font-family:sans-serif;font-size:13;font-weight:bold;" transform="matrix(1 0 0 1 1289 1953)">Exporting</text>
  <text style="stroke:none;fill:black;font-family:sans-serif;font-size:13;" transform="matrix(1 0 0 1 1289 1971)">Symbols should be outlined when exporting to ensure the</text>
  <text style="stroke:none;fill:black;font-family:sans-serif;font-size:13;" transform="matrix(1 0 0 1 1289 1989)">design is preserved when submitting to Xcode.</text>
  <text id="template-version" style="stroke:none;fill:black;font-family:sans-serif;font-size:13;text-anchor:end;" transform="matrix(1 0 0 1 3036 1933)">Template v.3.0</text>
  <text style="stroke:none;fill:black;font-family:sans-serif;font-size:13;text-anchor:end;" transform="matrix(1 0 0 1 3036 1951)">Requires Xcode 13 or greater</text>
  <text id="descriptive-name" style="stroke:none;fill:black;font-family:sans-serif;font-size:13;text-anchor:end;" transform="matrix(1 0 0 1 3036 1969)">Generated from r.square.fill</text>
  <text style="stroke:none;fill:black;font-family:sans-serif;font-size:13;text-anchor:end;" transform="matrix(1 0 0 1 3036 1987)">Typeset at 100 points</text>
  <text style="stroke:none;fill:black;font-family:sans-serif;font-size:13;" transform="matrix(1 0 0 1 263 726)">Small</text>
  <text style="stroke:none;fill:black;font-family:sans-serif;font-size:13;" transform="matrix(1 0 0 1 263 1156)">Medium</text>
  <text style="stroke:none;fill:black;font-family:sans-serif;font-size:13;" transform="matrix(1 0 0 1 263 1586)">Large</text>
 </g>
 <g id="Guides">
  <g id="H-reference" style="fill:#27AAE1;stroke:none;" transform="matrix(1 0 0 1 339 696)">
   <path d="M0.993347 0L3.6377 0L29.3282-67.1326L30.0301-67.1326L30.0301-70.459L28.1227-70.459ZM11.6882-24.4797L46.9818-24.4797L46.2311-26.7288L12.4382-26.7288ZM55.1193 0L57.7637 0L30.6381-70.459L29.4327-70.459L29.4327-67.1326Z"/>
  </g>
  <line id="Baseline-S" style="fill:none;stroke:#27AAE1;opacity:1;stroke-width:0.5;" x1="263" x2="3036" y1="696" y2="696"/>
  <line id="Capline-S" style="fill:none;stroke:#27AAE1;opacity:1;stroke-width:0.5;" x1="263" x2="3036" y1="625.541" y2="625.541"/>
  <g id="H-reference" style="fill:#27AAE1;stroke:none;" transform="matrix(1 0 0 1 339 1126)">
   <path d="M0.993347 0L3.6377 0L29.3282-67.1326L30.0301-67.1326L30.0301-70.459L28.1227-70.459ZM11.6882-24.4797L46.9818-24.4797L46.2311-26.7288L12.4382-26.7288ZM55.1193 0L57.7637 0L30.6381-70.459L29.4327-70.459L29.4327-67.1326Z"/>
  </g>
  <line id="Baseline-M" style="fill:none;stroke:#27AAE1;opacity:1;stroke-width:0.5;" x1="263" x2="3036" y1="1126" y2="1126"/>
  <line id="Capline-M" style="fill:none;stroke:#27AAE1;opacity:1;stroke-width:0.5;" x1="263" x2="3036" y1="1055.54" y2="1055.54"/>
  <g id="H-reference" style="fill:#27AAE1;stroke:none;" transform="matrix(1 0 0 1 339 1556)">
   <path d="M0.993347 0L3.6377 0L29.3282-67.1326L30.0301-67.1326L30.0301-70.459L28.1227-70.459ZM11.6882-24.4797L46.9818-24.4797L46.2311-26.7288L12.4382-26.7288ZM55.1193 0L57.7637 0L30.6381-70.459L29.4327-70.459L29.4327-67.1326Z"/>
  </g>
  <line id="Baseline-L" style="fill:none;stroke:#27AAE1;opacity:1;stroke-width:0.5;" x1="263" x2="3036" y1="1556" y2="1556"/>
  <line id="Capline-L" style="fill:none;stroke:#27AAE1;opacity:1;stroke-width:0.5;" x1="263" x2="3036" y1="1485.54" y2="1485.54"/>
  <line id="left-margin-Regular-M" style="fill:none;stroke:#00AEEF;stroke-width:0.5;opacity:1.0;" x1="1392.45" x2="1392.45" y1="1030.79" y2="1150.12"/>
  <line id="right-margin-Regular-M" style="fill:none;stroke:#00AEEF;stroke-width:0.5;opacity:1.0;" x1="1507.24" x2="1507.24" y1="1030.79" y2="1150.12"/>
 </g>
 <g id="Symbols">
  <g id="Black-L" transform="matrix(1 0 0 1 2855.72 1556)">
   <path d="M39.8559 26.4225L115.512 26.4225Q126.881 26.4225 133.083 20.23Q139.284 14.0375 139.284 2.71277L139.284-73.0901Q139.284-84.4148 133.083-90.6066Q126.881-96.7985 115.512-96.7985L39.8559-96.7985Q28.5079-96.7985 22.2959-90.6073Q16.084-84.4161 16.084-73.0901L16.084 2.71277Q16.084 14.0401 22.2959 20.2313Q28.5079 26.4225 39.8559 26.4225ZM60.3376-4.44094Q56.0352-4.44094 53.6868-7.0585Q51.3384-9.67607 51.3384-14.4482L51.3384-53.5977Q51.3384-59.1888 54.1236-62.1094Q56.9088-65.03 62.4377-65.03L79.8907-65.03Q91.6813-65.03 98.053-59.9286Q104.425-54.8272 104.425-45.2229Q104.425-39.133 101.268-34.579Q98.1121-30.025 92.5943-28.3207L99.9006-18.1146Q101.858-15.4758 101.858-12.336Q101.858-8.88087 99.4717-6.66091Q97.085-4.44094 93.3171-4.44094Q90.3343-4.44094 88.3316-5.87077Q86.329-7.30061 83.9454-11.0867L75.4318-24.7614L69.3978-24.7614L69.3978-14.4482Q69.3978-9.71375 67.0104-7.07734Q64.6231-4.44094 60.3376-4.44094ZM69.3978-38.0539L77.5268-38.0539Q80.9444-38.0539 82.9643-39.8958Q84.9842-41.7376 84.9842-44.8103Q84.9842-47.9854 83.0227-49.7999Q81.0612-51.6144 77.6097-51.6144L69.3978-51.6144Z"/>
  </g>
  <g id="Heavy-L" transform="matrix(1 0 0 1 2559.92 1556)">
   <path d="M38.8328 25.5158L114.704 25.5158Q125.682 25.5158 131.567 19.6396Q137.452 13.7633 137.452 2.85629L137.452-73.2288Q137.452-84.1358 131.567-90.0091Q125.682-95.8823 114.704-95.8823L38.8328-95.8823Q27.8839-95.8823 21.984-90.0121Q16.084-84.1419 16.084-73.2288L16.084 2.85629Q16.084 13.7754 21.984 19.6456Q27.8839 25.5158 38.8328 25.5158ZM59.5986-4.71558Q55.7686-4.71558 53.6839-7.07107Q51.5992-9.42657 51.5992-13.6522L51.5992-55.0392Q51.5992-59.8956 54.0126-62.4921Q56.4259-65.0886 61.193-65.0886L78.9089-65.0886Q90.1934-65.0886 96.4109-59.9796Q102.628-54.8705 102.628-45.4905Q102.628-39.4144 99.4054-34.8292Q96.1823-30.244 90.618-28.523L98.5544-16.995Q100.305-14.5601 100.305-11.7448Q100.305-8.66462 98.1887-6.6901Q96.0729-4.71558 92.7398-4.71558Q90.0673-4.71558 88.2892-5.97884Q86.5111-7.24211 84.4369-10.5663L75.2351-25.4671L67.6813-25.4671L67.6813-13.6522Q67.6813-9.44143 65.5624-7.0785Q63.4436-4.71558 59.5986-4.71558ZM67.6813-37.3211L76.7787-37.3211Q80.7752-37.3211 83.1403-39.424Q85.5053-41.527 85.5053-45.1335Q85.5053-48.8561 83.1849-50.9591Q80.8645-53.0621 76.8978-53.0621L67.6813-53.0621Z"/>
  </g>
  <g id="Bold-L" transform="matrix(1 0 0 1 2264.35 1556)">
   <path d="M37.5443 24.3864L113.709 24.3864Q124.174 24.3864 129.672 18.8927Q135.17 13.3991 135.17 3.03698L135.17-73.4013Q135.17-83.7634 129.672-89.2499Q124.174-94.7365 113.709-94.7365L37.5443-94.7365Q27.1168-94.7365 21.6004-89.257Q16.084-83.7776 16.084-73.4013L16.084 3.03698Q16.084 13.4275 21.6004 18.9069Q27.1168 24.3864 37.5443 24.3864ZM58.7-5.08899Q55.4674-5.08899 53.7123-7.10528Q51.9572-9.12156 51.9572-12.6553L51.9572-56.7151Q51.9572-60.6719 53.9171-62.8598Q55.877-65.0477 59.7229-65.0477L77.6667-65.0477Q88.2873-65.0477 94.2849-59.9589Q100.282-54.87 100.282-45.8099Q100.282-39.7492 96.9818-35.1479Q93.6811-30.5466 88.0532-28.8386L96.7923-15.5986Q98.2929-13.4234 98.2929-11.0259Q98.2929-8.41695 96.5189-6.75297Q94.7449-5.08899 91.953-5.08899Q89.6736-5.08899 88.1784-6.14435Q86.6831-7.1997 84.9838-9.96111L74.946-26.3917L65.5395-26.3917L65.5395-12.6553Q65.5395-9.11378 63.7584-7.10138Q61.9773-5.08899 58.7-5.08899ZM65.5395-36.4581L75.8729-36.4581Q80.517-36.4581 83.2766-38.882Q86.0363-41.3058 86.0363-45.5237Q86.0363-49.8733 83.3058-52.3235Q80.5754-54.7736 76.0208-54.7736L65.5395-54.7736Z"/>
  </g>
  <g id="Semibold-L" transform="matrix(1 0 0 1 1968.43 1556)">
   <path d="M36.6561 23.6077L113.024 23.6077Q123.134 23.6077 128.365 18.3778Q133.596 13.1479 133.596 3.16154L133.596-73.5202Q133.596-83.5066 128.365-88.7266Q123.134-93.9466 113.024-93.9466L36.6561-93.9466Q26.588-93.9466 21.336-88.7365Q16.084-83.5265 16.084-73.5202L16.084 3.16154Q16.084 13.1877 21.336 18.3977Q26.588 23.6077 36.6561 23.6077ZM58.0805-5.34642Q55.2598-5.34642 53.7319-7.12886Q52.204-8.91129 52.204-11.968L52.204-57.8704Q52.204-61.207 53.8514-63.1133Q55.4987-65.0195 58.7094-65.0195L76.8104-65.0195Q86.9732-65.0195 92.8191-59.9446Q98.6651-54.8697 98.6651-46.0302Q98.6651-39.9801 95.311-35.3677Q91.9568-30.7552 86.2851-29.0562L95.5776-14.636Q96.9061-12.6398 96.9061-10.5303Q96.9061-8.2462 95.3678-6.79631Q93.8295-5.34642 91.4105-5.34642Q89.4023-5.34642 88.102-6.25844Q86.8017-7.17046 85.3608-9.54389L74.7467-27.0291L64.063-27.0291L64.063-11.968Q64.063-8.88789 62.5148-7.11716Q60.9665-5.34642 58.0805-5.34642ZM64.063-35.8631L75.2484-35.8631Q80.339-35.8631 83.3707-38.5082Q86.4024-41.1534 86.4024-45.7928Q86.4024-50.5745 83.3892-53.264Q80.3761-55.9535 75.4163-55.9535L64.063-55.9535Z"/>
  </g>
  <g id="Medium-L" transform="matrix(1 0 0 1 1672.31 1556)">
   <path d="M35.9826 23.0174L112.505 23.0174Q122.346 23.0174 127.375 17.9874Q132.403 12.9575 132.403 3.25599L132.403-73.6104Q132.403-83.3119 127.375-88.3298Q122.346-93.3476 112.505-93.3476L35.9826-93.3476Q26.187-93.3476 21.1355-88.3419Q16.084-83.3361 16.084-73.6104L16.084 3.25599Q16.084 13.0058 21.1355 18.0116Q26.187 23.0174 35.9826 23.0174ZM57.6107-5.54162Q55.1024-5.54162 53.7468-7.14674Q52.3912-8.75186 52.3912-11.4469L52.3912-58.7464Q52.3912-61.6128 53.8015-63.3055Q55.2118-64.9981 57.9409-64.9981L76.161-64.9981Q85.9768-64.9981 91.7078-59.9338Q97.4388-54.8694 97.4388-46.1972Q97.4388-40.1552 94.0441-35.5343Q90.6494-30.9134 84.9444-29.2212L94.6565-13.9061Q95.8545-12.0456 95.8545-10.1545Q95.8545-8.11674 94.4949-6.82918Q93.1353-5.54162 90.9993-5.54162Q89.1965-5.54162 88.0441-6.34496Q86.8916-7.14829 85.6467-9.22754L74.5956-27.5125L62.9434-27.5125L62.9434-11.4469Q62.9434-8.71662 61.5718-7.12912Q60.2001-5.54162 57.6107-5.54162ZM62.9434-35.412L74.7749-35.412Q80.204-35.412 83.4419-38.2249Q86.6799-41.0378 86.6799-45.9968Q86.6799-51.1062 83.4525-53.9772Q80.225-56.8482 74.9579-56.8482L62.9434-56.8482Z"/>
  </g>
  <g id="Regular-L" transform="matrix(1 0 0 1 1376.38 1556)">
   <path d="M35.1041 22.2473L111.827 22.2473Q121.318 22.2473 126.082 17.4782Q130.847 12.7092 130.847 3.37919L130.847-73.728Q130.847-83.058 126.082-87.8122Q121.318-92.5664 111.827-92.5664L35.1041-92.5664Q25.664-92.5664 20.874-87.8271Q16.084-83.0877 16.084-73.728L16.084 3.37919Q16.084 12.7686 20.874 17.508Q25.664 22.2473 35.1041 22.2473ZM56.998-5.79622Q54.8971-5.79622 53.7662-7.17006Q52.6353-8.5439 52.6353-10.7672L52.6353-59.8891Q52.6353-62.1421 53.7364-63.5562Q54.8376-64.9702 56.9386-64.9702L75.3141-64.9702Q84.6772-64.9702 90.2582-59.9197Q95.8392-54.8691 95.8392-46.415Q95.8392-40.3835 92.3916-35.7516Q88.944-31.1197 83.1957-29.4363L93.4551-12.954Q94.4829-11.2706 94.4829-9.66433Q94.4829-7.94787 93.3564-6.87205Q92.2299-5.79622 90.4628-5.79622Q88.9281-5.79622 87.9685-6.4578Q87.0089-7.11938 86.0196-8.8149L74.3985-28.1429L61.4831-28.1429L61.4831-10.7672Q61.4831-8.49322 60.3417-7.14472Q59.2004-5.79622 56.998-5.79622ZM61.4831-34.8236L74.1572-34.8236Q80.0279-34.8236 83.5349-37.8553Q87.042-40.8869 87.042-46.2629Q87.042-51.7998 83.5349-54.9075Q80.0279-58.0151 74.3599-58.0151L61.4831-58.0151Z"/>
  </g>
  <g id="Light-L" transform="matrix(1 0 0 1 1080.5 1556)">
   <path d="M34.078 21.4264L111.191 21.4264Q120.127 21.4264 124.656 16.8626Q129.185 12.2987 129.185 3.52284L129.185-73.8511Q129.185-82.627 124.656-87.1657Q120.127-91.7045 111.191-91.7045L34.078-91.7045Q25.1715-91.7045 20.6277-87.1909Q16.084-82.6773 16.084-73.8511L16.084 3.52284Q16.084 12.3992 20.6277 16.9128Q25.1715 21.4264 34.078 21.4264ZM56.485-6.26822Q54.8765-6.26822 53.9919-7.31371Q53.1073-8.3592 53.1073-10.0079L53.1073-60.3406Q53.1073-62.0395 53.9416-63.1252Q54.776-64.2109 56.3845-64.2109L74.288-64.2109Q82.9533-64.2109 88.1957-59.3656Q93.4381-54.5203 93.4381-46.5586Q93.4381-40.5271 89.97-36.0286Q86.5019-31.5301 80.6715-30.0725L91.6286-11.9279Q92.5334-10.4703 92.5334-9.2539Q92.5334-7.90683 91.6839-7.08753Q90.8344-6.26822 89.4572-6.26822Q88.2509-6.26822 87.517-6.77589Q86.7832-7.28355 85.9991-8.65072L73.906-29.1074L59.9029-29.1074L59.9029-10.0079Q59.9029-8.32904 59.0283-7.29863Q58.1538-6.26822 56.485-6.26822ZM59.9029-34.5158L73.6647-34.5158Q79.5353-34.5158 83.104-37.7527Q86.6726-40.9896 86.6726-46.4682Q86.6726-52.1076 83.104-55.3897Q79.5353-58.6718 73.7853-58.6718L59.9029-58.6718Z"/>
  </g>
  <g id="Thin-L" transform="matrix(1 0 0 1 784.884 1556)">
   <path d="M32.7209 20.3407L110.349 20.3407Q118.553 20.3407 122.77 16.0483Q126.986 11.7559 126.986 3.71284L126.986-74.014Q126.986-82.057 122.77-86.3108Q118.553-90.5645 110.349-90.5645L32.7209-90.5645Q24.5201-90.5645 20.302-86.3495Q16.084-82.1344 16.084-74.014L16.084 3.71284Q16.084 11.9107 20.302 16.1257Q24.5201 20.3407 32.7209 20.3407ZM55.8064-6.89249Q54.8494-6.89249 54.2905-7.50371Q53.7315-8.11493 53.7315-9.00361L53.7315-60.9377Q53.7315-61.9038 54.2131-62.5552Q54.6946-63.2066 55.6516-63.2066L72.9309-63.2066Q80.6734-63.2066 85.4679-58.6327Q90.2625-54.0588 90.2625-46.7486Q90.2625-40.7171 86.7673-36.3951Q83.272-32.073 77.333-30.9139L89.213-10.5708Q89.9549-9.41175 89.9549-8.71106Q89.9549-7.85254 89.4718-7.37252Q88.9888-6.89249 88.1272-6.89249Q87.3552-6.89249 86.9199-7.19659Q86.4846-7.50069 85.9719-8.43359L73.2545-30.3831L57.813-30.3831L57.813-9.00361Q57.813-8.11191 57.2913-7.5022Q56.7695-6.89249 55.8064-6.89249ZM57.813-34.1087L73.0133-34.1087Q78.8839-34.1087 82.534-37.617Q86.184-41.1253 86.184-46.7396Q86.184-52.5147 82.534-56.0276Q78.8839-59.5404 73.0254-59.5404L57.813-59.5404Z"/>
  </g>
  <g id="Ultralight-L" transform="matrix(1 0 0 1 488.735 1556)">
   <path d="M32.0258 19.7847L109.918 19.7847Q117.747 19.7847 121.803 15.6313Q125.86 11.4778 125.86 3.81015L125.86-74.0974Q125.86-81.7651 121.803-85.8729Q117.747-89.9806 109.918-89.9806L32.0258-89.9806Q24.1864-89.9806 20.1352-85.9185Q16.084-81.8564 16.084-74.0974L16.084 3.81015Q16.084 11.6604 20.1352 15.7226Q24.1864 19.7847 32.0258 19.7847ZM55.4589-7.21223Q54.8355-7.21223 54.4434-7.60102Q54.0513-7.98981 54.0513-8.48924L54.0513-61.2435Q54.0513-61.8343 54.3521-62.2633Q54.6529-62.6923 55.2763-62.6923L72.2358-62.6923Q79.5056-62.6923 84.0708-58.2574Q88.636-53.8225 88.636-46.8459Q88.636-40.8144 85.1268-36.5827Q81.6177-32.351 75.6231-31.3449L87.9757-9.87572Q88.6342-8.86957 88.6342-8.43302Q88.6342-7.82474 88.3388-7.51849Q88.0434-7.21223 87.4461-7.21223Q86.8964-7.21223 86.6141-7.41207Q86.3317-7.61191 85.958-8.32237L72.9209-31.0365L56.7426-31.0365L56.7426-8.48924Q56.7426-8.00069 56.4015-7.60646Q56.0605-7.21223 55.4589-7.21223ZM56.7426-33.9001L72.6796-33.9001Q78.5503-33.9001 82.2421-37.5475Q85.9338-41.1948 85.9338-46.8786Q85.9338-52.7233 82.2421-56.3542Q78.5503-59.9852 72.6361-59.9852L56.7426-59.9852Z"/>
  </g>
  <g id="Black-M" transform="matrix(1 0 0 1 2872.54 1126)">
   <path d="M31.6183 13.203L90.1012 13.203Q99.1693 13.203 104.214 8.16134Q109.259 3.11973 109.259-5.93791L109.259-64.4591Q109.259-73.5167 104.214-78.5585Q99.1693-83.6003 90.1012-83.6003L31.6183-83.6003Q22.5558-83.6003 17.5084-78.5583Q12.4609-73.5164 12.4609-64.4591L12.4609-5.93791Q12.4609 3.11912 17.5084 8.16104Q22.5558 13.203 31.6183 13.203ZM47.3117-11.2042Q43.6392-11.2042 41.6265-13.4129Q39.6138-15.6216 39.6138-19.7106L39.6138-48.2824Q39.6138-53.1704 42.055-55.6672Q44.4963-58.164 49.3678-58.164L62.5994-58.164Q72.0745-58.164 77.0975-54.246Q82.1206-50.3281 82.1206-42.7613Q82.1206-38.0314 79.7299-34.548Q77.3391-31.0647 73.0932-29.7892L78.3066-22.7931Q79.9853-20.6041 79.9853-17.9454Q79.9853-14.9964 77.941-13.1003Q75.8966-11.2042 72.6566-11.2042Q70.1235-11.2042 68.4095-12.4343Q66.6956-13.6643 64.6109-16.9501L58.5425-26.6437L55.0265-26.6437L55.0265-19.7106Q55.0265-15.6732 52.9823-13.4387Q50.9381-11.2042 47.3117-11.2042ZM55.0265-38.0058L60.6394-38.0058Q62.7896-38.0058 64.0663-39.2362Q65.343-40.4665 65.343-42.4022Q65.343-44.4054 64.1234-45.5869Q62.9038-46.7684 60.6615-46.7684L55.0265-46.7684Z"/>
  </g>
  <g id="Heavy-M" transform="matrix(1 0 0 1 2576.65 1126)">
   <path d="M30.7128 12.3923L89.3692 12.3923Q98.107 12.3923 102.864 7.64094Q107.621 2.88957 107.621-5.81086L107.621-64.5834Q107.621-73.2838 102.864-78.0339Q98.107-82.7841 89.3692-82.7841L30.7128-82.7841Q21.9913-82.7841 17.2261-78.0352Q12.4609-73.2862 12.4609-64.5834L12.4609-5.81086Q12.4609 2.89446 17.2261 7.64338Q21.9913 12.3923 30.7128 12.3923ZM46.6366-11.4292Q43.3805-11.4292 41.6028-13.4119Q39.8252-15.3947 39.8252-19.0025L39.8252-49.6499Q39.8252-53.8708 41.9276-56.0811Q44.0299-58.2913 48.2021-58.2913L61.7343-58.2913Q70.779-58.2913 75.6826-54.347Q80.5862-50.4027 80.5862-43.0096Q80.5862-38.2932 78.1321-34.7671Q75.678-31.241 71.3941-29.9284L77.1591-21.7933Q78.6461-19.7827 78.6461-17.4054Q78.6461-14.7888 76.841-13.109Q75.0359-11.4292 72.185-11.4292Q69.9249-11.4292 68.4097-12.5106Q66.8944-13.592 65.0932-16.4565L58.3956-27.2445L53.4943-27.2445L53.4943-19.0025Q53.4943-15.4221 51.6879-13.4256Q49.8816-11.4292 46.6366-11.4292ZM53.4943-37.3178L59.9536-37.3178Q62.6697-37.3178 64.2781-38.7845Q65.8864-40.2512 65.8864-42.6992Q65.8864-45.2282 64.3217-46.6756Q62.757-48.123 60.0185-48.123L53.4943-48.123Z"/>
  </g>
  <g id="Bold-M" transform="matrix(1 0 0 1 2280.85 1126)">
   <path d="M29.6999 11.4855L88.5504 11.4855Q96.9187 11.4855 101.354 7.05878Q105.789 2.6321 105.789-5.66875L105.789-64.7224Q105.789-73.0233 101.354-77.4472Q96.9187-81.8711 88.5504-81.8711L29.6999-81.8711Q21.3597-81.8711 16.9103-77.4499Q12.4609-73.0288 12.4609-64.7224L12.4609-5.66875Q12.4609 2.64314 16.9103 7.0643Q21.3597 11.4855 29.6999 11.4855ZM45.8814-11.6808Q43.091-11.6808 41.5764-13.4109Q40.0618-15.1409 40.0618-18.2104L40.0618-51.1797Q40.0618-54.6544 41.785-56.5441Q43.5082-58.4338 46.8981-58.4338L60.7666-58.4338Q69.3299-58.4338 74.0998-54.4599Q78.8697-50.486 78.8697-43.2874Q78.8697-38.586 76.3447-35.0121Q73.8197-31.4381 69.4934-30.084L75.8755-20.6748Q77.1481-18.8639 77.1481-16.8012Q77.1481-14.5565 75.6106-13.1187Q74.0731-11.6808 71.6575-11.6808Q69.7029-11.6808 68.4098-12.5959Q67.1168-13.5111 65.6328-15.9043L58.2314-27.9166L51.7803-27.9166L51.7803-18.2104Q51.7803-15.1413 50.24-13.411Q48.6998-11.6808 45.8814-11.6808ZM51.7803-36.5482L59.1864-36.5482Q62.5356-36.5482 64.515-38.2792Q66.4943-40.0103 66.4943-43.0314Q66.4943-46.1486 64.5435-47.8935Q62.5927-49.6383 59.2993-49.6383L51.7803-49.6383Z"/>
  </g>
  <g id="Semibold-M" transform="matrix(1 0 0 1 1984.77 1126)">
   <path d="M29.0015 10.8603L87.9858 10.8603Q96.0995 10.8603 100.313 6.65745Q104.526 2.45461 104.526-5.57077L104.526-64.8183Q104.526-72.8436 100.313-77.0427Q96.0995-81.2417 87.9858-81.2417L29.0015-81.2417Q20.9244-81.2417 16.6926-77.0465Q12.4609-72.8513 12.4609-64.8183L12.4609-5.57077Q12.4609 2.46989 16.6926 6.66509Q20.9244 10.8603 29.0015 10.8603ZM45.3608-11.8542Q42.8914-11.8542 41.5581-13.4101Q40.2248-14.966 40.2248-17.6643L40.2248-52.2343Q40.2248-55.1945 41.6867-56.8632Q43.1485-58.532 45.9992-58.532L60.0994-58.532Q68.3308-58.532 73.0086-54.5377Q77.6864-50.5435 77.6864-43.4789Q77.6864-38.7879 75.1125-35.181Q72.5387-31.5741 68.1831-30.1913L74.9906-19.9037Q76.1153-18.2304 76.1153-16.3847Q76.1153-14.3964 74.7623-13.1253Q73.4094-11.8542 71.2938-11.8542Q69.5498-11.8542 68.41-12.6548Q67.2702-13.4553 66.0047-15.5237L58.1181-28.38L50.5986-28.38L50.5986-17.6643Q50.5986-14.9476 49.2418-13.4009Q47.885-11.8542 45.3608-11.8542ZM50.5986-36.0176L58.6575-36.0176Q62.4432-36.0176 64.6783-37.9309Q66.9134-39.8442 66.9134-43.2604Q66.9134-46.7831 64.6964-48.7331Q62.4795-50.683 58.8035-50.683L50.5986-50.683Z"/>
  </g>
  <g id="Medium-M" transform="matrix(1 0 0 1 1688.54 1126)">
   <path d="M28.472 10.3863L87.5578 10.3863Q95.4783 10.3863 99.5236 6.35315Q103.569 2.32003 103.569-5.49648L103.569-64.8909Q103.569-72.7075 99.5236-76.736Q95.4783-80.7644 87.5578-80.7644L28.472-80.7644Q20.5942-80.7644 16.5276-76.7406Q12.4609-72.7167 12.4609-64.8909L12.4609-5.49648Q12.4609 2.33852 16.5276 6.36239Q20.5942 10.3863 28.472 10.3863ZM44.966-11.9858Q42.7401-11.9858 41.5443-13.4095Q40.3485-14.8333 40.3485-17.2503L40.3485-53.034Q40.3485-55.6041 41.6121-57.1053Q42.8758-58.6064 45.3175-58.6064L59.5935-58.6064Q67.5733-58.6064 72.1813-54.5968Q76.7892-50.5871 76.7892-43.6241Q76.7892-38.941 74.1782-35.3091Q71.5673-31.6771 67.1895-30.2726L74.3196-19.3191Q75.3323-17.7501 75.3323-16.0689Q75.3323-14.275 74.1192-13.1304Q72.9061-11.9858 71.018-11.9858Q69.4337-11.9858 68.4101-12.6994Q67.3864-13.413 66.2868-15.235L58.0323-28.7313L49.7027-28.7313L49.7027-17.2503Q49.7027-14.8008 48.485-13.3933Q47.2672-11.9858 44.966-11.9858ZM49.7027-35.6152L58.2565-35.6152Q62.3731-35.6152 64.8021-37.6668Q67.2311-39.7183 67.2311-43.4341Q67.2311-47.2642 64.8124-49.3697Q62.3936-51.4751 58.4276-51.4751L49.7027-51.4751Z"/>
  </g>
  <g id="Regular-M" transform="matrix(1 0 0 1 1392.45 1126)">
   <path d="M27.7814 9.76797L86.9995 9.76797Q94.6681 9.76797 98.494 5.95622Q102.32 2.14448 102.32-5.39959L102.32-64.9857Q102.32-72.5298 98.494-76.3359Q94.6681-80.142 86.9995-80.142L27.7814-80.142Q20.1637-80.142 16.3123-76.3416Q12.4609-72.5412 12.4609-64.9857L12.4609-5.39959Q12.4609 2.16717 16.3123 5.96757Q20.1637 9.76797 27.7814 9.76797ZM44.4511-12.1573Q42.5428-12.1573 41.5263-13.4088Q40.5098-14.6603 40.5098-16.7102L40.5098-54.077Q40.5098-56.1383 41.5149-57.4209Q42.5201-58.7036 44.4284-58.7036L58.9337-58.7036Q66.5853-58.7036 71.1021-54.6738Q75.6189-50.6439 75.6189-43.8135Q75.6189-39.1406 72.9596-35.4761Q70.3003-31.8116 65.8936-30.3788L73.4444-18.5565Q74.3109-17.1236 74.3109-15.657Q74.3109-14.1167 73.2802-13.137Q72.2496-12.1573 70.6583-12.1573Q69.2822-12.1573 68.4102-12.7576Q67.5381-13.3579 66.6547-14.8586L57.9203-29.1896L48.534-29.1896L48.534-16.7102Q48.534-14.6093 47.4977-13.3833Q46.4614-12.1573 44.4511-12.1573ZM48.534-35.0905L57.7334-35.0905Q62.2816-35.0905 64.9636-37.3223Q67.6456-39.5541 67.6456-43.6606Q67.6456-47.8918 64.9636-50.2Q62.2816-52.5083 57.9372-52.5083L48.534-52.5083Z"/>
  </g>
  <g id="Light-M" transform="matrix(1 0 0 1 1096.49 1126)">
   <path d="M26.8614 9.03201L86.4291 9.03201Q93.601 9.03201 97.2153 5.40425Q100.83 1.7765 100.83-5.27079L100.83-65.0961Q100.83-72.1434 97.2153-75.7563Q93.601-79.3692 86.4291-79.3692L26.8614-79.3692Q19.7221-79.3692 16.0915-75.7712Q12.4609-72.1732 12.4609-65.0961L12.4609-5.27079Q12.4609 1.83599 16.0915 5.434Q19.7221 9.03201 26.8614 9.03201ZM43.9912-12.5805Q42.5244-12.5805 41.7287-13.5376Q40.9329-14.4947 40.9329-16.0294L40.9329-54.4818Q40.9329-56.0463 41.6989-57.0345Q42.4649-58.0228 43.9317-58.0228L58.0138-58.0228Q65.0398-58.0228 69.253-54.177Q73.4662-50.3312 73.4662-43.9423Q73.4662-39.2694 70.7885-35.7245Q68.1108-32.1796 63.6305-30.9491L71.8069-17.6365Q72.563-16.4061 72.563-15.289Q72.563-14.0799 71.7807-13.3302Q70.9985-12.5805 69.7568-12.5805Q68.6751-12.5805 68.0054-13.0428Q67.3357-13.505 66.6363-14.7114L57.4787-30.0543L47.1173-30.0543L47.1173-16.0294Q47.1173-14.4621 46.3202-13.5213Q45.5231-12.5805 43.9912-12.5805ZM47.1173-34.8145L57.2918-34.8145Q61.84-34.8145 64.5772-37.2303Q67.3144-39.6461 67.3144-43.8446Q67.3144-48.1677 64.5772-50.6324Q61.84-53.097 57.422-53.097L47.1173-53.097Z"/>
  </g>
  <g id="Thin-M" transform="matrix(1 0 0 1 800.76 1126)">
   <path d="M25.6447 8.05864L85.6747 8.05864Q92.1896 8.05864 95.5241 4.67423Q98.8585 1.28982 98.8585-5.10045L98.8585-65.2421Q98.8585-71.6324 95.5241-74.9898Q92.1896-78.3472 85.6747-78.3472L25.6447-78.3472Q19.1381-78.3472 15.7995-75.0168Q12.4609-71.6865 12.4609-65.2421L12.4609-5.10045Q12.4609 1.39797 15.7995 4.72831Q19.1381 8.05864 25.6447 8.05864ZM43.3828-13.1402Q42.5-13.1402 41.9963-13.7079Q41.4926-14.2757 41.4926-15.1291L41.4926-55.0172Q41.4926-55.9246 41.9422-56.5235Q42.3919-57.1224 43.2746-57.1224L56.7971-57.1224Q62.9957-57.1224 66.8074-53.52Q70.6191-49.9175 70.6191-44.1126Q70.6191-39.4398 67.9171-36.053Q65.2151-32.6662 60.6374-31.7035L69.6411-16.4198Q70.2512-15.4571 70.2512-14.8023Q70.2512-14.0312 69.7975-13.5857Q69.3438-13.1402 68.5644-13.1402Q67.8721-13.1402 67.47-13.42Q67.068-13.6997 66.6119-14.5167L56.8947-31.198L45.2436-31.198L45.2436-15.1291Q45.2436-14.2675 44.7628-13.7038Q44.282-13.1402 43.3828-13.1402ZM45.2436-34.4495L56.7078-34.4495Q61.256-34.4495 64.0662-37.1086Q66.8764-39.7678 66.8764-44.088Q66.8764-48.5328 64.0662-51.2042Q61.256-53.8757 56.7407-53.8757L45.2436-53.8757Z"/>
  </g>
  <g id="Ultralight-M" transform="matrix(1 0 0 1 504.553 1126)">
   <path d="M25.0215 7.56009L85.2884 7.56009Q91.4667 7.56009 94.6578 4.30031Q97.8489 1.04054 97.8489-5.01321L97.8489-65.3169Q97.8489-71.3707 94.6578-74.5972Q91.4667-77.8237 85.2884-77.8237L25.0215-77.8237Q18.8389-77.8237 15.6499-74.6305Q12.4609-71.4372 12.4609-65.3169L12.4609-5.01321Q12.4609 1.17363 15.6499 4.36686Q18.8389 7.56009 25.0215 7.56009ZM43.0712-13.4269Q42.4876-13.4269 42.1334-13.7952Q41.7793-14.1635 41.7793-14.6679L41.7793-55.2914Q41.7793-55.8623 42.0669-56.2618Q42.3545-56.6613 42.9381-56.6613L56.1739-56.6613Q61.9487-56.6613 65.5548-53.1834Q69.1608-49.7056 69.1608-44.1999Q69.1608-39.527 66.4463-36.2213Q63.7319-32.9155 59.1044-32.0899L68.5318-15.7966Q69.0672-14.971 69.0672-14.553Q69.0672-14.0063 68.7817-13.7166Q68.4962-13.4269 67.9537-13.4269Q67.4607-13.4269 67.1958-13.6131Q66.9309-13.7994 66.5995-14.417L56.5956-31.7838L44.2839-31.7838L44.2839-14.6679Q44.2839-14.1678 43.9651-13.7973Q43.6464-13.4269 43.0712-13.4269ZM44.2839-34.2625L56.4086-34.2625Q60.9569-34.2625 63.8045-37.0463Q66.652-39.8301 66.652-44.2126Q66.652-48.7197 63.8045-51.4971Q60.9569-54.2746 56.3917-54.2746L44.2839-54.2746Z"/>
  </g>
  <g id="Black-S" transform="matrix(1 0 0 1 2885.5 696)">
   <path d="M25 2.92969L70.8008 2.92969Q77.9785 2.92969 82.0068-1.09863Q86.0352-5.12695 86.0352-12.3047L86.0352-58.1055Q86.0352-65.2832 82.0068-69.3115Q77.9785-73.3398 70.8008-73.3398L25-73.3398Q17.8223-73.3398 13.7939-69.3115Q9.76562-65.2832 9.76562-58.1055L9.76562-12.3047Q9.76562-5.12695 13.7939-1.09863Q17.8223 2.92969 25 2.92969ZM37.2559-16.3574Q34.2773-16.3574 32.6416-18.1396Q31.0059-19.9219 31.0059-23.2422L31.0059-45.0684Q31.0059-49.0723 33.0078-51.0986Q35.0098-53.125 39.0137-53.125L49.2676-53.125Q56.7871-53.125 60.7422-50.0732Q64.6973-47.0215 64.6973-41.0645Q64.6973-37.3535 62.8418-34.6436Q60.9863-31.9336 57.666-30.957L61.6211-25.7324Q62.9883-23.9746 62.9883-21.8262Q62.9883-19.4336 61.3281-17.8955Q59.668-16.3574 57.0312-16.3574Q54.9805-16.3574 53.5889-17.3584Q52.1973-18.3594 50.4883-21.0449L45.8984-28.3691L43.5059-28.3691L43.5059-23.2422Q43.5059-19.9707 41.8457-18.1641Q40.1855-16.3574 37.2559-16.3574ZM43.5059-37.5977L47.7051-37.5977Q49.2188-37.5977 50.1221-38.501Q51.0254-39.4043 51.0254-40.7715Q51.0254-42.1875 50.1709-43.042Q49.3164-43.8965 47.7051-43.8965L43.5059-43.8965Z"/>
  </g>
  <g id="Heavy-S" transform="matrix(1 0 0 1 2589.39 696)">
   <path d="M24.3431 2.33042L70.2476 2.33042Q77.2064 2.33042 81.0157-1.47318Q84.8251-5.27677 84.8251-12.2125L84.8251-58.1977Q84.8251-65.1334 81.0157-68.937Q77.2064-72.7406 70.2476-72.7406L24.3431-72.7406Q17.3959-72.7406 13.5807-68.937Q9.76562-65.1334 9.76562-58.1977L9.76562-12.2125Q9.76562-5.27677 13.5807-1.47318Q17.3959 2.33042 24.3431 2.33042ZM36.7373-16.4957Q34.0584-16.4957 32.5955-18.1224Q31.1326-19.749 31.1326-22.7236L31.1326-46.1862Q31.1326-49.6831 32.8753-51.502Q34.6179-53.3209 38.0802-53.3209L48.6453-53.3209Q55.8767-53.3209 59.7684-50.2231Q63.6601-47.1252 63.6601-41.2604Q63.6601-37.561 61.7527-34.7991Q59.8454-32.0373 56.502-31.0031L60.849-24.9949Q62.0663-23.3638 62.0663-21.4113Q62.0663-19.2607 60.579-17.8782Q59.0917-16.4957 56.7431-16.4957Q54.8883-16.4957 53.6407-17.3872Q52.3932-18.2787 50.9032-20.6416L45.8293-28.7725L42.3765-28.7725L42.3765-22.7236Q42.3765-19.7748 40.8892-18.1353Q39.4019-16.4957 36.7373-16.4957ZM42.3765-37.0445L47.175-37.0445Q49.1727-37.0445 50.3526-38.1264Q51.5325-39.2084 51.5325-41.002Q51.5325-42.8559 50.3899-43.9179Q49.2473-44.9798 47.2211-44.9798L42.3765-44.9798Z"/>
  </g>
  <g id="Bold-S" transform="matrix(1 0 0 1 2293.36 696)">
   <path d="M23.6084 1.66016L69.6289 1.66016Q76.3428 1.66016 79.9072-1.89209Q83.4717-5.44434 83.4717-12.1094L83.4717-58.3008Q83.4717-64.9658 79.9072-68.5181Q76.3428-72.0703 69.6289-72.0703L23.6084-72.0703Q16.9189-72.0703 13.3423-68.5181Q9.76562-64.9658 9.76562-58.3008L9.76562-12.1094Q9.76562-5.44434 13.3423-1.89209Q16.9189 1.66016 23.6084 1.66016ZM36.1572-16.6504Q33.8135-16.6504 32.5439-18.103Q31.2744-19.5557 31.2744-22.1436L31.2744-47.4365Q31.2744-50.3662 32.7271-51.9531Q34.1797-53.54 37.0361-53.54L47.9492-53.54Q54.8584-53.54 58.6792-50.3906Q62.5-47.2412 62.5-41.4795Q62.5-37.793 60.5347-34.9731Q58.5693-32.1533 55.2002-31.0547L59.9854-24.1699Q61.0352-22.6807 61.0352-20.9473Q61.0352-19.0674 59.7412-17.8589Q58.4473-16.6504 56.4209-16.6504Q54.7852-16.6504 53.6987-17.4194Q52.6123-18.1885 51.3672-20.1904L45.752-29.2236L41.1133-29.2236L41.1133-22.1436Q41.1133-19.5557 39.8193-18.103Q38.5254-16.6504 36.1572-16.6504ZM41.1133-36.4258L46.582-36.4258Q49.1211-36.4258 50.6104-37.7075Q52.0996-38.9893 52.0996-41.2598Q52.0996-43.6035 50.6348-44.8975Q49.1699-46.1914 46.6797-46.1914L41.1133-46.1914Z"/>
  </g>
  <g id="Semibold-S" transform="matrix(1 0 0 1 1997.11 696)">
   <path d="M23.1019 1.19805L69.2023 1.19805Q75.7474 1.19805 79.143-2.18091Q82.5386-5.55986 82.5386-12.0383L82.5386-58.3719Q82.5386-64.8503 79.143-68.2292Q75.7474-71.6082 69.2023-71.6082L23.1019-71.6082Q16.5901-71.6082 13.1779-68.2292Q9.76562-64.8503 9.76562-58.3719L9.76562-12.0383Q9.76562-5.55986 13.1779-2.18091Q16.5901 1.19805 23.1019 1.19805ZM35.7573-16.757Q33.6446-16.757 32.5084-18.0897Q31.3722-19.4224 31.3722-21.7437L31.3722-48.2985Q31.3722-50.8372 32.6249-52.2642Q33.8775-53.6911 36.3163-53.6911L47.4693-53.6911Q54.1563-53.6911 57.9283-50.5062Q61.7002-47.3212 61.7002-41.6306Q61.7002-37.9529 59.6949-35.0931Q57.6896-32.2333 54.3026-31.0902L59.3899-23.6012Q60.3242-22.2097 60.3242-20.6273Q60.3242-18.9341 59.1636-17.8456Q58.0029-16.757 56.1987-16.757Q54.7141-16.757 53.7387-17.4417Q52.7634-18.1263 51.6871-19.8794L45.6986-29.5347L40.2424-29.5347L40.2424-21.7437Q40.2424-19.4046 39.0817-18.0808Q37.9211-16.757 35.7573-16.757ZM40.2424-35.9992L46.1732-35.9992Q49.0855-35.9992 50.7881-37.4187Q52.4906-38.8382 52.4906-41.4375Q52.4906-44.1189 50.8036-45.5729Q49.1166-47.0268 46.3064-47.0268L40.2424-47.0268Z"/>
  </g>
  <g id="Medium-S" transform="matrix(1 0 0 1 1700.76 696)">
   <path d="M22.7178 0.847656L68.8789 0.847656Q75.2959 0.847656 78.5635-2.3999Q81.8311-5.64746 81.8311-11.9844L81.8311-58.4258Q81.8311-64.7627 78.5635-68.0103Q75.2959-71.2578 68.8789-71.2578L22.7178-71.2578Q16.3408-71.2578 13.0532-68.0103Q9.76562-64.7627 9.76562-58.4258L9.76562-11.9844Q9.76562-5.64746 13.0532-2.3999Q16.3408 0.847656 22.7178 0.847656ZM35.4541-16.8379Q33.5166-16.8379 32.4814-18.0796Q31.4463-19.3213 31.4463-21.4404L31.4463-48.9521Q31.4463-51.1943 32.5474-52.5Q33.6484-53.8057 35.7705-53.8057L47.1055-53.8057Q53.624-53.8057 57.3589-50.5938Q61.0938-47.3818 61.0938-41.7451Q61.0938-38.0742 59.0581-35.1841Q57.0225-32.2939 53.6221-31.1172L58.9385-23.1699Q59.7852-21.8525 59.7852-20.3848Q59.7852-18.833 58.7256-17.8354Q57.666-16.8379 56.0303-16.8379Q54.6602-16.8379 53.769-17.4585Q52.8779-18.0791 51.9297-19.6436L45.6582-29.7705L39.582-29.7705L39.582-21.4404Q39.582-19.29 38.5225-18.064Q37.4629-16.8379 35.4541-16.8379ZM39.582-35.6758L45.8633-35.6758Q49.0586-35.6758 50.9229-37.1997Q52.7871-38.7236 52.7871-41.5723Q52.7871-44.5098 50.9316-46.085Q49.0762-47.6602 46.0234-47.6602L39.582-47.6602Z"/>
  </g>
  <g id="Regular-S" transform="matrix(1 0 0 1 1404.51 696)">
   <path d="M22.2168 0.390625L68.457 0.390625Q74.707 0.390625 77.8076-2.68555Q80.9082-5.76172 80.9082-11.9141L80.9082-58.4961Q80.9082-64.6484 77.8076-67.7246Q74.707-70.8008 68.457-70.8008L22.2168-70.8008Q16.0156-70.8008 12.8906-67.7246Q9.76562-64.6484 9.76562-58.4961L9.76562-11.9141Q9.76562-5.76172 12.8906-2.68555Q16.0156 0.390625 22.2168 0.390625ZM35.0586-16.9434Q33.3496-16.9434 32.4463-18.0664Q31.543-19.1895 31.543-21.0449L31.543-49.8047Q31.543-51.6602 32.4463-52.8076Q33.3496-53.9551 35.0586-53.9551L46.6309-53.9551Q52.9297-53.9551 56.6162-50.708Q60.3027-47.4609 60.3027-41.8945Q60.3027-38.2324 58.2275-35.3027Q56.1523-32.373 52.7344-31.1523L58.3496-22.6074Q59.082-21.3867 59.082-20.0684Q59.082-18.7012 58.1543-17.8223Q57.2266-16.9434 55.8105-16.9434Q54.5898-16.9434 53.8086-17.4805Q53.0273-18.0176 52.2461-19.3359L45.6055-30.0781L38.7207-30.0781L38.7207-21.0449Q38.7207-19.1406 37.793-18.042Q36.8652-16.9434 35.0586-16.9434ZM38.7207-35.2539L45.459-35.2539Q49.0234-35.2539 51.0986-36.9141Q53.1738-38.5742 53.1738-41.748Q53.1738-45.0195 51.0986-46.7529Q49.0234-48.4863 45.6543-48.4863L38.7207-48.4863Z"/>
  </g>
  <g id="Light-S" transform="matrix(1 0 0 1 1108.45 696)">
   <path d="M21.403-0.260417L67.9525-0.260417Q73.763-0.260417 76.6764-3.17383Q79.5898-6.08724 79.5898-11.8001L79.5898-58.5938Q79.5898-64.3066 76.6764-67.2119Q73.763-70.1172 67.9525-70.1172L21.403-70.1172Q15.625-70.1172 12.6953-67.2201Q9.76562-64.3229 9.76562-58.5938L9.76562-11.8001Q9.76562-6.05469 12.6953-3.15755Q15.625-0.260417 21.403-0.260417ZM34.6517-17.3177Q33.3333-17.3177 32.6253-18.1803Q31.9173-19.043 31.9173-20.4427L31.9173-50.1628Q31.9173-51.5788 32.609-52.4658Q33.3008-53.3529 34.6191-53.3529L45.8171-53.3529Q51.5625-53.3529 54.9805-50.2686Q58.3984-47.1842 58.3984-42.0085Q58.3984-38.3464 56.307-35.5225Q54.2155-32.6986 50.7324-31.6569L56.901-21.7936Q57.5358-20.752 57.5358-19.7428Q57.5358-18.6686 56.8278-17.9932Q56.1198-17.3177 55.013-17.3177Q54.0527-17.3177 53.4505-17.7327Q52.8483-18.1478 52.2298-19.2057L45.2148-30.8431L37.4674-30.8431L37.4674-20.4427Q37.4674-19.0104 36.7513-18.1641Q36.0352-17.3177 34.6517-17.3177ZM37.4674-35.0098L45.0684-35.0098Q48.6328-35.0098 50.7568-36.8327Q52.8809-38.6556 52.8809-41.9108Q52.8809-45.2637 50.7568-47.1354Q48.6328-49.0072 45.1986-49.0072L37.4674-49.0072Z"/>
  </g>
  <g id="Thin-S" transform="matrix(1 0 0 1 812.615 696)">
   <path d="M20.3267-1.12147L67.2852-1.12147Q72.5145-1.12147 75.1803-3.81962Q77.8462-6.51777 77.8462-11.6494L77.8462-58.7229Q77.8462-63.8546 75.1803-66.5338Q72.5145-69.2131 67.2852-69.2131L20.3267-69.2131Q15.1084-69.2131 12.437-66.5527Q9.76562-63.8924 9.76562-58.7229L9.76562-11.6494Q9.76562-6.44216 12.437-3.78182Q15.1084-1.12147 20.3267-1.12147ZM34.1135-17.8128Q33.3118-17.8128 32.8621-18.331Q32.4124-18.8492 32.4124-19.6462L32.4124-50.6363Q32.4124-51.4711 32.8243-52.0138Q33.2362-52.5564 34.0379-52.5564L44.7407-52.5564Q49.7543-52.5564 52.8171-49.6873Q55.8799-46.8183 55.8799-42.1591Q55.8799-38.497 53.7669-35.8131Q51.6539-33.1291 48.0847-32.3242L54.9852-20.7173Q55.4908-19.9124 55.4908-19.3123Q55.4908-18.6256 55.0734-18.2192Q54.656-17.8128 53.9582-17.8128Q53.3424-17.8128 52.9769-18.0664Q52.6115-18.32 52.2083-19.0335L44.6982-31.8548L35.8099-31.8548L35.8099-19.6462Q35.8099-18.8382 35.3736-18.3255Q34.9373-17.8128 34.1135-17.8128ZM35.8099-34.6869L44.5517-34.6869Q48.1162-34.6869 50.3048-36.7251Q52.4934-38.7632 52.4934-42.1261Q52.4934-45.5866 50.3048-47.6413Q48.1162-49.696 44.5958-49.696L35.8099-49.696Z"/>
  </g>
  <g id="Ultralight-S" transform="matrix(1 0 0 1 516.35 696)">
   <path d="M19.7754-1.5625L66.9434-1.5625Q71.875-1.5625 74.4141-4.15039Q76.9531-6.73828 76.9531-11.5723L76.9531-58.7891Q76.9531-63.623 74.4141-66.1865Q71.875-68.75 66.9434-68.75L19.7754-68.75Q14.8438-68.75 12.3047-66.2109Q9.76562-63.6719 9.76562-58.7891L9.76562-11.5723Q9.76562-6.64062 12.3047-4.10156Q14.8438-1.5625 19.7754-1.5625ZM33.8379-18.0664Q33.3008-18.0664 32.9834-18.4082Q32.666-18.75 32.666-19.2383L32.666-50.8789Q32.666-51.416 32.9346-51.7822Q33.2031-52.1484 33.7402-52.1484L44.1895-52.1484Q48.8281-52.1484 51.709-49.3896Q54.5898-46.6309 54.5898-42.2363Q54.5898-38.5742 52.4658-35.9619Q50.3418-33.3496 46.7285-32.666L54.0039-20.166Q54.4434-19.4824 54.4434-19.0918Q54.4434-18.6035 54.1748-18.335Q53.9062-18.0664 53.418-18.0664Q52.9785-18.0664 52.7344-18.2373Q52.4902-18.4082 52.1973-18.9453L44.4336-32.373L34.9609-32.373L34.9609-19.2383Q34.9609-18.75 34.668-18.4082Q34.375-18.0664 33.8379-18.0664ZM34.9609-34.5215L44.2871-34.5215Q47.8516-34.5215 50.0732-36.6699Q52.2949-38.8184 52.2949-42.2363Q52.2949-45.752 50.0732-47.9004Q47.8516-50.0488 44.2871-50.0488L34.9609-50.0488Z"/>
  </g>
 </g>
</svg>
